<svg xmlns="http://www.w3.org/2000/svg" xmlns:ev="http://www.w3.org/2001/xml-events" xmlns:xlink="http://www.w3.org/1999/xlink" width="627.666" height="361.5" class="st33" color-interpolation-filters="sRGB" viewBox="0 0 470.75 271.125" xml:space="preserve"><style type="text/css">.st1{fill:#fff;stroke-width:.25}.st1,.st2{stroke:none}.st2,.st3{stroke-width:.25}.st2{fill:#d8d8d8}.st3{fill:#fff;stroke:#90aadb}.st4,.st5{stroke:none}.st4{fill:url(#grad0-12);stroke-linecap:butt;stroke-width:.75}.st5{fill:#f2f2f2}.st5,.st6,.st7{stroke-linecap:butt;stroke-width:.75}.st6{fill:#0078d4;stroke:none}.st7{fill:#e6e6e6}.st7,.st8,.st9{stroke:none}.st8{fill:#ce74b6;stroke-linecap:butt;stroke-width:.75}.st9{fill:none;stroke-width:.25}.st10{fill:#5b9bd5;font-family:Calibri;font-size:.833336em;font-weight:700}.st11{fill:url(#grad0-39)}.st11,.st12,.st13,.st14,.st15,.st16,.st17,.st18{stroke:none;stroke-linecap:butt;stroke-width:.75}.st12{fill:#821010}.st13{fill:#e62323}.st14{fill:#ff7381}.st15{fill:#9cebff}.st16{fill:#86d633}.st17{fill:url(#grad0-71)}.st18{fill:url(#grad0-77)}.st19{fill:#fff}.st19,.st20,.st21,.st22,.st23,.st24{stroke:none;stroke-linecap:butt;stroke-width:.75}.st20{fill:#fff;fill-opacity:.8}.st21{fill:url(#grad0-87)}.st22{fill:url(#grad0-91)}.st23{fill:#50e6ff}.st24{fill:#1490df}.st25{font-size:1em}.st26,.st27,.st28{stroke:#4672c4;stroke-linecap:round;stroke-linejoin:round;stroke-width:1}.st27{stroke-dasharray:7,5}.st28{stroke-dasharray:0,5}.st29{fill:#fff;stroke:#90aadb;stroke-dasharray:1.75,1.25;stroke-width:.25}.st30,.st31,.st32{fill:#000;font-family:Calibri;font-size:.666664em}.st31,.st32{fill:#5b9bd5;font-size:.499992em}.st32{font-size:.666664em;font-weight:700}.st33{fill:none;fill-rule:evenodd;font-size:12px;overflow:visible;stroke-linecap:square;stroke-miterlimit:3}</style><defs id="Patterns_And_Gradients"><linearGradient id="grad0-12" x1="0" x2="1" y1="0" y2="0" gradientTransform="rotate(-90 0.5 0.5)"><stop offset="0" stop-color="#198ab3" stop-opacity="1"/><stop offset=".11" stop-color="#22a5cb" stop-opacity="1"/><stop offset=".23" stop-color="#29bade" stop-opacity="1"/><stop offset=".37" stop-color="#2ec9eb" stop-opacity="1"/><stop offset=".53" stop-color="#31d1f3" stop-opacity="1"/><stop offset=".78" stop-color="#32d4f5" stop-opacity="1"/></linearGradient><linearGradient id="grad0-39" x1="0" x2="1" y1="0" y2="0" gradientTransform="rotate(-90 0.5 0.5)"><stop offset="0" stop-color="#0078d4" stop-opacity="1"/><stop offset=".82" stop-color="#5ea0ef" stop-opacity="1"/></linearGradient><linearGradient id="grad0-71" x1="0" x2="1" y1="0" y2="0" gradientTransform="rotate(-90 0.5 0.5)"><stop offset="0" stop-color="#0078d4" stop-opacity="1"/><stop offset=".775" stop-color="#5ea0ef" stop-opacity="1"/></linearGradient><linearGradient id="grad0-77" x1="0" x2="1" y1="0" y2="0" gradientTransform="rotate(90 0.5 0.5)"><stop offset="0" stop-color="#fff" stop-opacity="1"/><stop offset="1" stop-color="#fff" stop-opacity="1"/></linearGradient><linearGradient id="grad0-87" x1="0" x2="1" y1="0" y2="0" gradientTransform="rotate(44.92 0.5 0.5)"><stop offset="0" stop-color="#86d633" stop-opacity="1"/><stop offset="1" stop-color="#5e9624" stop-opacity="1"/></linearGradient><linearGradient id="grad0-91" x1="0" x2="1" y1="0" y2="0" gradientTransform="rotate(45.175215904905 0.5 0.5)"><stop offset="0" stop-color="#86d633" stop-opacity="1"/><stop offset="1" stop-color="#5e9624" stop-opacity="1"/></linearGradient></defs><g><title>VBackground-1</title><g id="shape1000-1"><title>Solid.1000</title><rect width="470.75" height="271.125" x="0" y="0" class="st1"/></g></g><g><title>Baseline Architecture</title><g id="shape34-3" transform="translate(18.25,-28.125)"><title>Rectangle</title><rect width="187" height="160.562" x="0" y="110.563" class="st2"/></g><g id="shape56-5" transform="translate(54.25,-116.687)"><title>Rectangle.168</title><rect width="90" height="47.25" x="0" y="223.875" class="st3"/></g><g id="group1-7" transform="translate(222.05,-217.037)"><title>Sheet.1</title><g id="group2-8"><title>Sheet.2</title><g id="shape3-9" transform="translate(0,-11.9735)"><title>Sheet.3</title><path d="M44.25 261.23 A10.0317 10.0317 -180 0 0 35.66 251.6 A12.6789 12.6789 -180 0 0 22.65 239.63 A13.0433 13.0433 -180 0 0 10.41 247.96 A12.2156 12.2156 -180 0 0 0 259.41 A12.0048 12.0048 -180 0 0 12.49 271.12 L34.36 271.12 A9.89118 9.89118 -180 0 0 44.25 261.23 Z" class="st4"/></g><g id="shape4-13" transform="translate(10.6721,-2.27374E-13)"><title>Sheet.4</title><ellipse cx="11.453" cy="259.672" class="st5" rx="11.453" ry="11.453"/></g><g id="shape5-15" transform="translate(11.9735,-1.30147)"><title>Sheet.5</title><path d="M19.78 253.69 A11.9735 11.9735 -180 0 0 3.12 251.34 A11.872 11.872 -180 1 0 17.7 270.08 A11.8616 11.8616 -180 0 0 19.78 253.69 ZM0 260.19 A12.252 12.252 0 0 1 1.04 256.03 L3.9 256.03 A20.2301 20.2301 -180 0 0 3.38 260.19 L0 260.19 ZM5.47 256.03 L9.37 256.03 L9.37 260.19 L4.95 260.19 A20.2301 20.2301 0 0 1 5.47 256.03 ZM10.93 256.03 L14.84 256.03 A20.2301 20.2301 0 0 1 15.36 260.19 L10.93 260.19 L10.93 256.03 ZM9.63 261.49 L9.63 265.66 L5.47 265.66 L4.69 261.75 L9.63 261.49 ZM10.93 261.49 L15.62 261.49 A25.9539 25.9539 0 0 1 15.1 265.66 L10.93 265.66 L10.93 261.49 ZM17.18 261.49 L20.56 261.49 A12.252 12.252 0 0 1 19.52 265.66 L16.66 265.66 A20.2301 20.2301 -180 0 0 17.18 261.49 ZM17.18 260.19 A25.9539 25.9539 -180 0 0 16.66 256.03 L19.52 256.03 A10.9141 10.9141 0 0 1 20.56 260.19 L17.18 260.19 ZM18.48 254.47 L16.14 254.47 A11.7132 11.7132 -180 0 0 14.58 251.34 A11.5258 11.5258 0 0 1 18.48 254.47 ZM14.58 254.47 L10.93 254.47 L10.93 250.82 A5.65099 5.65099 0 0 1 14.58 254.47 ZM9.63 250.82 L9.63 254.73 L5.99 254.73 A5.51303 5.51303 0 0 1 9.63 250.82 ZM3.9 252.64 A14.5296 14.5296 0 0 1 5.99 251.34 A8.06912 8.06912 -180 0 0 4.43 254.73 L2.08 254.73 A7.02794 7.02794 0 0 1 3.9 252.64 ZM0 261.75 L3.38 261.75 A25.9539 25.9539 -180 0 0 3.9 265.92 L1.04 265.92 A13.9231 13.9231 0 0 1 0 261.75 ZM2.08 267.22 L4.42 267.22 L5.99 270.34 A9.08687 9.08687 0 0 1 2.08 267.22 ZM5.99 267.22 L9.37 267.22 L9.37 271.12 A6.33296 6.33296 0 0 1 5.99 267.22 ZM10.93 271.12 L10.93 267.22 L14.32 267.22 A5.12259 5.12259 0 0 1 10.93 271.12 ZM16.66 269.04 A6.82491 6.82491 0 0 1 14.32 270.34 A8.79534 8.79534 -180 0 0 15.88 267.22 L18.22 267.22 A3.49835 3.49835 0 0 1 16.66 269.04 Z" class="st6"/></g><g id="shape6-17" transform="translate(6.24706,-15.3574)"><title>Sheet.6</title><path d="M5.73 271.12 A10.4768 10.4768 0 0 1 0 263.58 A9.49032 9.49032 0 0 1 3.9 256.03 L5.47 254.73 L6.77 256.29 L5.21 257.59 A6.53078 6.53078 -180 0 0 2.08 263.32 A7.88951 7.88951 -180 0 0 6.77 269.3 L5.73 271.12 Z" class="st7"/></g><g id="shape7-19" transform="translate(9.63088,-28.1118)"><title>Sheet.7</title><ellipse cx="2.863" cy="268.262" class="st5" rx="2.863" ry="2.863"/></g><g id="shape8-21" transform="translate(30.7147,-15.3574)"><title>Sheet.8</title><path d="M1.04 271.12 L0 269.3 A8.48299 8.48299 -180 0 0 4.69 263.32 A7.15288 7.15288 -180 0 0 1.56 257.59 L0 256.55 L1.3 254.99 L2.86 256.03 A7.99363 7.99363 0 0 1 6.77 263.58 A10.4768 10.4768 0 0 1 1.04 271.12 Z" class="st7"/></g><g id="shape9-23" transform="translate(28.6324,-28.1118)"><title>Sheet.9</title><ellipse cx="2.863" cy="268.262" class="st5" rx="2.863" ry="2.863"/></g><g id="shape10-25" transform="translate(9.63088,-13.275)"><title>Sheet.10</title><ellipse cx="2.863" cy="268.262" class="st8" rx="2.863" ry="2.863"/></g><g id="shape11-27" transform="translate(28.6324,-13.275)"><title>Sheet.11</title><ellipse cx="2.863" cy="268.262" class="st8" rx="2.863" ry="2.863"/></g></g></g><g id="shape54-29" transform="translate(25.8182,-9.475)"><title>Sheet.54</title><desc>East US region</desc><rect width="149.114" height="19.125" x="0" y="252" class="st9"/><text x="44.77" y="264.56" class="st10">East US region</text></g><g id="shape57-32" transform="translate(22.75,-118.938)"><title>Sheet.57</title><desc>Virtual WAN hub</desc><rect width="149.114" height="19.125" x="0" y="252" class="st9"/><text x="38.19" y="264.56" class="st10">Virtual WAN hub</text></g><g id="group12-35" transform="translate(128.5,-104.088)"><title>Icon-networking-84</title><g id="shape13-36" transform="translate(0,-3.08595)"><title>Sheet.13</title><path d="M22.62 266.09 A5.10168 5.10168 -180 0 0 18.21 261.21 A6.40851 6.40851 -180 0 0 11.61 255.09 A6.57186 6.57186 -180 0 0 5.33 259.37 A6.05667 6.05667 -180 0 0 -0 265.2 A6.15719 6.15719 -180 0 0 6.37 271.12 L6.92 271.12 L17.24 271.12 A1.83459 1.83459 -180 0 0 17.52 271.12 A5.15194 5.15194 -180 0 0 22.62 266.09 Z" class="st11"/></g><g id="shape14-40" transform="translate(4.66188,0)"><title>Sheet.14</title><path d="M13.29 264.33 a0.52776 0.52776 -180 0 0 -0.52776 -0.515194 L0.53 263.81 a0.52776 0.52776 -180 0 0 -0.52776 0.515194 L0 270.61 a0.52776 0.52776 -180 0 0 0.52776 0.515194 L12.77 271.12 a0.52776 0.52776 -180 0 0 0.52776 -0.515194 L13.29 264.33 Z" class="st12"/></g><g id="shape15-42" transform="translate(5.40325,-4.98858)"><title>Sheet.15</title><rect width="3.606" height="1.596" x="0" y="269.529" class="st13"/></g><g id="shape16-44" transform="translate(9.54993,-4.98858)"><title>Sheet.16</title><rect width="3.606" height="1.596" x="0" y="269.529" class="st14"/></g><g id="shape17-46" transform="translate(13.6966,-4.98858)"><title>Sheet.17</title><rect width="3.606" height="1.596" x="0" y="269.529" class="st13"/></g><g id="shape18-48" transform="translate(5.40325,-2.85241)"><title>Sheet.18</title><rect width="1.495" height="1.596" x="0" y="269.529" class="st13"/></g><g id="shape19-50" transform="translate(15.8077,-2.85241)"><title>Sheet.19</title><rect width="1.495" height="1.596" x="0" y="269.529" class="st14"/></g><g id="shape20-52" transform="translate(7.4389,-2.85241)"><title>Sheet.20</title><rect width="3.606" height="1.596" x="0" y="269.529" class="st14"/></g><g id="shape21-54" transform="translate(11.5981,-2.85241)"><title>Sheet.21</title><rect width="3.606" height="1.596" x="0" y="269.529" class="st13"/></g><g id="shape22-56" transform="translate(5.40325,-0.716245)"><title>Sheet.22</title><rect width="3.606" height="1.596" x="0" y="269.529" class="st13"/></g><g id="shape23-58" transform="translate(9.54993,-0.716245)"><title>Sheet.23</title><rect width="3.606" height="1.596" x="0" y="269.529" class="st14"/></g><g id="shape24-60" transform="translate(13.6966,-0.716245)"><title>Sheet.24</title><rect width="3.606" height="1.596" x="0" y="269.529" class="st13"/></g></g><g id="group35-62" transform="translate(75.1818,-134.177)"><title>Sheet.35</title><g id="group36-63"><title>a101d3be-9418-4282-9372-6812b30</title><g id="shape37-64" transform="translate(3.1565,-2.24849)"><title>Sheet.37</title><path d="M31.97 253.35 L31.97 253.37 L38.62 253.21 L38.57 251.14 L31.96 251.29 L31.96 251.25 L26.45 250.62 L26.45 244.61 L26.43 244.59 L30.34 234.6 L28.4 233.86 L24.47 243.91 L24.47 243.91 L20.25 248.79 L13.6 243.87 L13.51 243.8 L9.62 233.86 L7.68 234.6 L11.62 244.66 L11.67 244.64 L15.24 252.44 L6.67 251.25 L6.63 251.32 L6.63 251.29 L0.05 251.14 L0 253.21 L6.58 253.37 L6.59 252.66 L10.94 254.04 L11.8 256.96 L11.72 260.33 L7.78 270.38 L9.72 271.12 L13.65 261.07 L13.33 260.95 L16.43 257.94 L24.51 259.85 L25.52 260.7 L24.57 261.07 L28.5 271.12 L30.43 270.38 L26.5 260.33 L26.43 260.36 L27.01 256.17 L31.97 253.35 Z" class="st15"/></g><g id="shape38-66" transform="translate(0.931718,-2.27374E-13)"><title>Sheet.38</title><path d="M43.32 250.08 A3.18108 3.18108 0 1 1 40.14 246.9 A3.18108 3.18108 0 0 1 43.32 250.08 ZM2.25 246.9 A3.18108 3.18108 -180 1 0 5.43 250.08 A3.18108 3.18108 -180 0 0 2.25 246.9 ZM10.8 265.7 A3.18108 3.18108 -180 1 0 13.98 268.88 A3.18108 3.18108 -180 0 0 10.8 265.7 ZM32.14 265.7 A3.18108 3.18108 -180 1 0 35.32 268.88 A3.18108 3.18108 -180 0 0 32.14 265.7 ZM10.46 227.92 A3.18108 3.18108 -180 1 0 13.64 231.1 A3.17863 3.17863 -180 0 0 10.46 227.92 ZM32.37 227.92 A3.18108 3.18108 -180 1 0 35.55 231.1 A3.17862 3.17863 -180 0 0 32.37 227.92 Z" class="st16"/></g><g id="shape39-68" transform="translate(0,-10.1127)"><title>Sheet.39</title><path d="M8.69 255.23 L35.56 255.23 L35.56 270.23 a0.897292 0.897292 0 0 1 -0.897292 0.897292 L9.59 271.12 a0.897292 0.897292 0 0 1 -0.897292 -0.897292 L8.69 255.23 L8.69 255.23 Z" class="st17"/></g><g id="shape40-72" transform="translate(2.21823E-13,-26.0058)"><title>Sheet.40</title><path d="M9.59 265.4 L34.66 265.4 a0.897292 0.897292 0 0 1 0.897292 0.897292 L35.56 271.12 L8.69 271.12 L8.69 266.29 a0.897292 0.897292 0 0 1 0.897292 -0.897292 Z" class="st6"/></g><g id="shape41-74" transform="translate(17.1543,-17.8162)"><title>Sheet.41</title><path d="M8.83 269.07 A1.19721 1.19721 0 1 1 7.63 270.27 A1.19721 1.19721 0 0 1 8.83 269.07 ZM3.82 270.28 A1.19721 1.19721 -180 1 0 5.01 269.08 A1.19721 1.19721 -180 0 0 3.82 270.28 ZM0 270.28 A1.19721 1.19721 -180 1 0 1.2 269.08 A1.19721 1.19721 -180 0 0 -0 270.28 Z" class="st18"/></g><g id="shape42-78" transform="translate(12.8472,-13.1025)"><title>Sheet.42</title><path d="M6.37 270.35 L5.69 271.03 a0.30975 0.30975 0 0 1 -0.437583 0 L0.18 265.98 a0.617042 0.617042 0 0 1 -7.49401E-15 -0.875167 L0.87 264.42 L6.37 269.91 a0.30975 0.30975 0 0 1 8.88178E-16 0.437583 ZM17.69 264.41 L12.19 269.9 a0.307292 0.307292 -180 0 0 3.55271E-15 0.437583 L12.87 271.02 a0.307292 0.307292 -180 0 0 0.437583 0 L18.37 265.97 a0.6195 0.6195 -180 0 0 -7.10543E-15 -0.875167 L17.69 264.41 L17.69 264.41 Z" class="st19"/></g><g id="shape43-80" transform="translate(12.8472,-17.5713)"><title>Sheet.43</title><path d="M5.59 264.58 L6.28 265.26 a0.30975 0.30975 0 0 1 -2.66454E-15 0.437583 L0.87 271.12 L0.18 270.44 a0.617042 0.617042 0 0 1 -6.27276E-15 -0.875167 L5.15 264.58 a0.30975 0.30975 0 0 1 0.4425 0 ZM18.37 270.42 a0.617042 0.617042 -180 0 0 7.10543E-15 -0.875167 L13.41 264.56 a0.30975 0.30975 -180 0 0 -0.437583 -5.68434E-14 L12.28 265.25 a0.30975 0.30975 -180 0 0 -1.42109E-14 0.437583 L17.69 271.12 L18.37 270.43 L18.37 270.42 Z" class="st20"/></g></g></g><g id="group117-82" transform="translate(54.975,-42.4375)"><title>Sheet.117</title><g id="group65-83" transform="translate(0.884133,-10.0187)"><title>Icon-networking-61</title><g id="shape66-84" transform="translate(18.4526,-13.0583)"><title>Sheet.66</title><ellipse cx="1.593" cy="269.532" class="st21" rx="1.593" ry="1.593"/></g><g id="shape67-88" transform="translate(13.37,-13.0445)"><title>Sheet.67</title><ellipse cx="1.593" cy="269.532" class="st22" rx="1.593" ry="1.593"/></g><g id="shape68-92" transform="translate(8.28746,-13.0445)"><title>Sheet.68</title><ellipse cx="1.593" cy="269.532" class="st22" rx="1.593" ry="1.593"/></g><g id="shape69-95" transform="translate(197.925,444.161) rotate(134.92)"><title>Sheet.69</title><path d="M3.59 260.36 L4.88 260.36 a0.412099 0.412099 0 0 1 0.412099 0.412099 L5.29 270.3 a0.824199 0.824199 0 0 1 -0.824199 0.824199 L3.17 271.12 L3.17 260.77 a0.412099 0.412099 0 0 1 0.412099 -0.412099 Z" class="st23"/></g><g id="shape70-97" transform="translate(191.446,62.2718) rotate(44.92)"><title>Sheet.70</title><path d="M3.52 260.51 L4.81 260.51 a0.412099 0.412099 0 0 1 0.412099 0.412099 L5.22 271.12 L3.93 271.12 a0.824199 0.824199 0 0 1 -0.824199 -0.824199 L3.1 260.92 a0.412099 0.412099 0 0 1 0.412099 -0.412099 Z" class="st24"/></g><g id="shape71-99" transform="translate(196.744,57.3432) rotate(45.08)"><title>Sheet.71</title><path d="M19.44 260.36 L20.73 260.36 a0.824199 0.824199 0 0 1 0.824199 0.824199 L21.55 270.71 a0.412099 0.412099 0 0 1 -0.412099 0.412099 L19.85 271.12 a0.412099 0.412099 0 0 1 -0.412099 -0.412099 L19.44 260.36 Z" class="st23"/></g><g id="shape72-101" transform="translate(225.376,427.116) rotate(135.08)"><title>Sheet.72</title><path d="M20.34 260.51 L21.64 260.51 L21.64 270.71 a0.412099 0.412099 0 0 1 -0.412099 0.412099 L19.92 271.12 a0.412099 0.412099 0 0 1 -0.412099 -0.412099 L19.51 261.33 a0.824199 0.824199 0 0 1 0.824199 -0.824199 L20.34 260.51 Z" class="st24"/></g></g><g id="shape107-103" transform="translate(-6.99084,9.70484)"><title>Sheet.107</title><desc>Virtual network</desc><rect width="45.308" height="29.196" x="0" y="241.929" class="st9"/><text x="8.58" y="253.53" class="st10">Virtual <tspan x="5.13" class="st25" dy="1.2em">network</tspan></text></g></g><g id="shape135-107" transform="translate(101.325,-82.9375)"><title>Dynamic connector.203</title><path d="M9 271.12 L9 238.32" class="st26"/></g><g id="shape136-110" transform="translate(61.725,-82.9375)"><title>Dynamic connector.136</title><path d="M9 271.12 L9 238.32" class="st26"/></g><g id="shape137-113" transform="translate(265.5,-28.125)"><title>Rectangle.137</title><rect width="187" height="160.562" x="0" y="110.563" class="st2"/></g><g id="shape138-115" transform="translate(324.25,-116.687)"><title>Rectangle.138</title><rect width="90" height="47.25" x="0" y="223.875" class="st3"/></g><g id="shape139-117" transform="translate(295.818,-9.475)"><title>Sheet.139</title><desc>West US3 region</desc><rect width="149.114" height="19.125" x="0" y="252" class="st9"/><text x="40.09" y="264.56" class="st10">West US3 region</text></g><g id="shape140-120" transform="translate(292.75,-118.938)"><title>Sheet.140</title><desc>Virtual WAN hub</desc><rect width="149.114" height="19.125" x="0" y="252" class="st9"/><text x="38.19" y="264.56" class="st10">Virtual WAN hub</text></g><g id="group141-123" transform="translate(317.95,-104.088)"><title>Icon-networking-84.141</title><g id="shape142-124" transform="translate(0,-3.08595)"><title>Sheet.142</title><path d="M22.62 266.09 A5.10168 5.10168 -180 0 0 18.21 261.21 A6.40851 6.40851 -180 0 0 11.61 255.09 A6.57186 6.57186 -180 0 0 5.33 259.37 A6.05667 6.05667 -180 0 0 -0 265.2 A6.15719 6.15719 -180 0 0 6.37 271.12 L6.92 271.12 L17.24 271.12 A1.83459 1.83459 -180 0 0 17.52 271.12 A5.15194 5.15194 -180 0 0 22.62 266.09 Z" class="st11"/></g><g id="shape143-127" transform="translate(4.66188,0)"><title>Sheet.143</title><path d="M13.29 264.33 a0.52776 0.52776 -180 0 0 -0.52776 -0.515194 L0.53 263.81 a0.52776 0.52776 -180 0 0 -0.52776 0.515194 L0 270.61 a0.52776 0.52776 -180 0 0 0.52776 0.515194 L12.77 271.12 a0.52776 0.52776 -180 0 0 0.52776 -0.515194 L13.29 264.33 Z" class="st12"/></g><g id="shape144-129" transform="translate(5.40325,-4.98858)"><title>Sheet.144</title><rect width="3.606" height="1.596" x="0" y="269.529" class="st13"/></g><g id="shape145-131" transform="translate(9.54993,-4.98858)"><title>Sheet.145</title><rect width="3.606" height="1.596" x="0" y="269.529" class="st14"/></g><g id="shape146-133" transform="translate(13.6966,-4.98858)"><title>Sheet.146</title><rect width="3.606" height="1.596" x="0" y="269.529" class="st13"/></g><g id="shape147-135" transform="translate(5.40325,-2.85241)"><title>Sheet.147</title><rect width="1.495" height="1.596" x="0" y="269.529" class="st13"/></g><g id="shape148-137" transform="translate(15.8077,-2.85241)"><title>Sheet.148</title><rect width="1.495" height="1.596" x="0" y="269.529" class="st14"/></g><g id="shape149-139" transform="translate(7.4389,-2.85241)"><title>Sheet.149</title><rect width="3.606" height="1.596" x="0" y="269.529" class="st14"/></g><g id="shape150-141" transform="translate(11.5981,-2.85241)"><title>Sheet.150</title><rect width="3.606" height="1.596" x="0" y="269.529" class="st13"/></g><g id="shape151-143" transform="translate(5.40325,-0.716245)"><title>Sheet.151</title><rect width="3.606" height="1.596" x="0" y="269.529" class="st13"/></g><g id="shape152-145" transform="translate(9.54993,-0.716245)"><title>Sheet.152</title><rect width="3.606" height="1.596" x="0" y="269.529" class="st14"/></g><g id="shape153-147" transform="translate(13.6966,-0.716245)"><title>Sheet.153</title><rect width="3.606" height="1.596" x="0" y="269.529" class="st13"/></g></g><g id="group154-149" transform="translate(345.182,-134.177)"><title>Sheet.154</title><g id="group155-150"><title>a101d3be-9418-4282-9372-6812b30</title><g id="shape156-151" transform="translate(3.1565,-2.24849)"><title>Sheet.156</title><path d="M31.97 253.35 L31.97 253.37 L38.62 253.21 L38.57 251.14 L31.96 251.29 L31.96 251.25 L26.45 250.62 L26.45 244.61 L26.43 244.59 L30.34 234.6 L28.4 233.86 L24.47 243.91 L24.47 243.91 L20.25 248.79 L13.6 243.87 L13.51 243.8 L9.62 233.86 L7.68 234.6 L11.62 244.66 L11.67 244.64 L15.24 252.44 L6.67 251.25 L6.63 251.32 L6.63 251.29 L0.05 251.14 L0 253.21 L6.58 253.37 L6.59 252.66 L10.94 254.04 L11.8 256.96 L11.72 260.33 L7.78 270.38 L9.72 271.12 L13.65 261.07 L13.33 260.95 L16.43 257.94 L24.51 259.85 L25.52 260.7 L24.57 261.07 L28.5 271.12 L30.43 270.38 L26.5 260.33 L26.43 260.36 L27.01 256.17 L31.97 253.35 Z" class="st15"/></g><g id="shape157-153" transform="translate(0.931718,-2.27374E-13)"><title>Sheet.157</title><path d="M43.32 250.08 A3.18108 3.18108 0 1 1 40.14 246.9 A3.18108 3.18108 0 0 1 43.32 250.08 ZM2.25 246.9 A3.18108 3.18108 -180 1 0 5.43 250.08 A3.18108 3.18108 -180 0 0 2.25 246.9 ZM10.8 265.7 A3.18108 3.18108 -180 1 0 13.98 268.88 A3.18108 3.18108 -180 0 0 10.8 265.7 ZM32.14 265.7 A3.18108 3.18108 -180 1 0 35.32 268.88 A3.18108 3.18108 -180 0 0 32.14 265.7 ZM10.46 227.92 A3.18108 3.18108 -180 1 0 13.64 231.1 A3.17863 3.17863 -180 0 0 10.46 227.92 ZM32.37 227.92 A3.18108 3.18108 -180 1 0 35.55 231.1 A3.17862 3.17863 -180 0 0 32.37 227.92 Z" class="st16"/></g><g id="shape158-155" transform="translate(0,-10.1127)"><title>Sheet.158</title><path d="M8.69 255.23 L35.56 255.23 L35.56 270.23 a0.897292 0.897292 0 0 1 -0.897292 0.897292 L9.59 271.12 a0.897292 0.897292 0 0 1 -0.897292 -0.897292 L8.69 255.23 L8.69 255.23 Z" class="st17"/></g><g id="shape159-158" transform="translate(2.21823E-13,-26.0058)"><title>Sheet.159</title><path d="M9.59 265.4 L34.66 265.4 a0.897292 0.897292 0 0 1 0.897292 0.897292 L35.56 271.12 L8.69 271.12 L8.69 266.29 a0.897292 0.897292 0 0 1 0.897292 -0.897292 Z" class="st6"/></g><g id="shape160-160" transform="translate(17.1543,-17.8162)"><title>Sheet.160</title><path d="M8.83 269.07 A1.19721 1.19721 0 1 1 7.63 270.27 A1.19721 1.19721 0 0 1 8.83 269.07 ZM3.82 270.28 A1.19721 1.19721 -180 1 0 5.01 269.08 A1.19721 1.19721 -180 0 0 3.82 270.28 ZM0 270.28 A1.19721 1.19721 -180 1 0 1.2 269.08 A1.19721 1.19721 -180 0 0 -0 270.28 Z" class="st18"/></g><g id="shape161-163" transform="translate(12.8472,-13.1025)"><title>Sheet.161</title><path d="M6.37 270.35 L5.69 271.03 a0.30975 0.30975 0 0 1 -0.437583 0 L0.18 265.98 a0.617042 0.617042 0 0 1 -7.49401E-15 -0.875167 L0.87 264.42 L6.37 269.91 a0.30975 0.30975 0 0 1 8.88178E-16 0.437583 ZM17.69 264.41 L12.19 269.9 a0.307292 0.307292 -180 0 0 3.55271E-15 0.437583 L12.87 271.02 a0.307292 0.307292 -180 0 0 0.437583 0 L18.37 265.97 a0.6195 0.6195 -180 0 0 -7.10543E-15 -0.875167 L17.69 264.41 L17.69 264.41 Z" class="st19"/></g><g id="shape162-165" transform="translate(12.8472,-17.5713)"><title>Sheet.162</title><path d="M5.59 264.58 L6.28 265.26 a0.30975 0.30975 0 0 1 -2.66454E-15 0.437583 L0.87 271.12 L0.18 270.44 a0.617042 0.617042 0 0 1 -6.27276E-15 -0.875167 L5.15 264.58 a0.30975 0.30975 0 0 1 0.4425 0 ZM18.37 270.42 a0.617042 0.617042 -180 0 0 7.10543E-15 -0.875167 L13.41 264.56 a0.30975 0.30975 -180 0 0 -0.437583 -5.68434E-14 L12.28 265.25 a0.30975 0.30975 -180 0 0 -1.42109E-14 0.437583 L17.69 271.12 L18.37 270.43 L18.37 270.42 Z" class="st20"/></g></g></g><g id="shape183-167" transform="translate(388.65,-82.9375)"><title>Dynamic connector.183</title><path d="M9 271.12 L9 238.32" class="st26"/></g><g id="shape184-170" transform="translate(350.85,-82.9375)"><title>Dynamic connector.184</title><path d="M9 271.12 L9 238.32" class="st26"/></g><g id="shape189-173" transform="translate(266.485,-86.4354) rotate(25.183)"><title>Sheet.189</title><path d="M0 271.12 L21.91 271.12" class="st27"/></g><g id="shape190-176" transform="translate(468.01,383.839) rotate(146.395)"><title>Sheet.190</title><path d="M0 271.12 L18.46 271.12" class="st27"/></g><g id="shape191-179" transform="translate(144.25,-160.875)"><title>Sheet.191</title><path d="M0 271.12 L180 271.12" class="st26"/></g><g id="shape193-182" transform="translate(353.655,325.543) rotate(125.776)"><title>Sheet.193</title><path d="M0 271.12 L36.62 271.12" class="st28"/></g><g id="shape194-185" transform="translate(262.845,405.423) rotate(151.551)"><title>Sheet.194</title><path d="M0 271.12 L64.29 271.12" class="st28"/></g><g id="shape196-188" transform="translate(171.511,-123.865)"><title>Rectangle.128</title><path d="M0 271.12 L131.62 271.12 L131.62 247.62 L0 247.62 L0 271.12 Z" class="st29"/></g><g id="shape197-190" transform="translate(170.386,-123.865)"><title>Sheet.197</title><desc>Internet traffic: Via Azure Firewall Private traffic: Via Azu...</desc><rect width="149.114" height="23.51" x="0" y="247.615" class="st9"/><text x="4" y="258.82" class="st30">Internet traffic: Via Azure Firewall<tspan x="4" class="st25" dy="1.2em">Private traffic: Via Azure Firewall</tspan></text></g><g id="shape198-194" transform="translate(190.242,-136.383) rotate(9.76657)"><title>Sheet.198</title><path d="M0 271.12 L27.66 271.12" class="st27"/></g><g id="shape199-197" transform="translate(383.072,395.48) rotate(167.47)"><title>Sheet.199</title><path d="M0 271.12 L21.63 271.12" class="st27"/></g><g id="shape128-200" transform="translate(170.95,-91.125)"><title>Rectangle.128</title><path d="M0 271.12 L131.62 271.12 L131.62 247.62 L0 247.62 L0 271.12 Z" class="st29"/></g><g id="shape130-202" transform="translate(168.443,-79.875)"><title>Sheet.130</title><desc>DNS Server: Azure DNS DNS Proxy: Enabled</desc><rect width="149.114" height="35.693" x="0" y="235.433" class="st9"/><text x="4" y="246.63" class="st30">DNS Server: Azure DNS<tspan x="4" class="st25" dy="1.2em">DNS Proxy: Enabled</tspan></text></g><g id="shape221-206" transform="translate(555.375,8.57571) rotate(54.2351)"><title>Sheet.221</title><path d="M0 271.12 L36.63 271.12" class="st28"/></g><g id="shape222-209" transform="translate(464.239,-71.5074) rotate(28.3777)"><title>Sheet.222</title><path d="M0 271.12 L62.54 271.12" class="st28"/></g><g id="shape1001-212" transform="translate(166.5,-200.475)"><title>Sheet.1001</title><desc>Azure Virtual WAN</desc><rect width="149.114" height="19.125" x="0" y="252" class="st9"/><text x="35.37" y="264.56" class="st10">Azure Virtual WAN</text></g><g id="shape1002-215" transform="translate(114.75,-66.4286)"><title>Sheet.1002</title><desc>Configured DNS server</desc><rect width="45.134" height="29.196" x="0" y="241.929" class="st9"/><text x="9.1" y="251.13" class="st31">Configured <tspan x="17.41" class="st25" dy="1.2em">DNS </tspan><tspan x="14.96" class="st25" dy="1.2em">server</tspan></text></g><g id="shape1003-220" transform="translate(308.116,-66.375)"><title>Sheet.1003</title><desc>Configured DNS server</desc><rect width="45.134" height="29.196" x="0" y="241.929" class="st9"/><text x="9.1" y="251.13" class="st31">Configured <tspan x="17.41" class="st25" dy="1.2em">DNS </tspan><tspan x="14.96" class="st25" dy="1.2em">server</tspan></text></g><g id="shape1004-225" transform="translate(70.5403,-96.75)"><title>Sheet.1004</title><desc>Peered</desc><rect width="38.919" height="19.125" x="0" y="252" class="st9"/><text x="7.72" y="263.96" class="st32">Peered</text></g><g id="shape1005-228" transform="translate(360.79,-96.4425)"><title>Sheet.1005</title><desc>Peered</desc><rect width="38.919" height="19.125" x="0" y="252" class="st9"/><text x="7.72" y="263.96" class="st32">Peered</text></g><g id="shape1006-231" transform="translate(205.25,-158.313)"><title>Sheet.1006</title><desc>Connected</desc><rect width="55.215" height="19.125" x="0" y="252" class="st9"/><text x="9.81" y="263.96" class="st32">Connected</text></g><g id="group1017-234" transform="translate(95.1829,-42.4375)"><title>Sheet.1017</title><g id="group1018-235" transform="translate(0.884133,-10.0187)"><title>Icon-networking-61</title><g id="shape1019-236" transform="translate(18.4526,-13.0583)"><title>Sheet.1019</title><ellipse cx="1.593" cy="269.532" class="st21" rx="1.593" ry="1.593"/></g><g id="shape1020-239" transform="translate(13.37,-13.0445)"><title>Sheet.1020</title><ellipse cx="1.593" cy="269.532" class="st22" rx="1.593" ry="1.593"/></g><g id="shape1021-242" transform="translate(8.28746,-13.0445)"><title>Sheet.1021</title><ellipse cx="1.593" cy="269.532" class="st22" rx="1.593" ry="1.593"/></g><g id="shape1022-245" transform="translate(197.925,444.161) rotate(134.92)"><title>Sheet.1022</title><path d="M3.59 260.36 L4.88 260.36 a0.412099 0.412099 0 0 1 0.412099 0.412099 L5.29 270.3 a0.824199 0.824199 0 0 1 -0.824199 0.824199 L3.17 271.12 L3.17 260.77 a0.412099 0.412099 0 0 1 0.412099 -0.412099 Z" class="st23"/></g><g id="shape1023-247" transform="translate(191.446,62.2718) rotate(44.92)"><title>Sheet.1023</title><path d="M3.52 260.51 L4.81 260.51 a0.412099 0.412099 0 0 1 0.412099 0.412099 L5.22 271.12 L3.93 271.12 a0.824199 0.824199 0 0 1 -0.824199 -0.824199 L3.1 260.92 a0.412099 0.412099 0 0 1 0.412099 -0.412099 Z" class="st24"/></g><g id="shape1024-249" transform="translate(196.744,57.3432) rotate(45.08)"><title>Sheet.1024</title><path d="M19.44 260.36 L20.73 260.36 a0.824199 0.824199 0 0 1 0.824199 0.824199 L21.55 270.71 a0.412099 0.412099 0 0 1 -0.412099 0.412099 L19.85 271.12 a0.412099 0.412099 0 0 1 -0.412099 -0.412099 L19.44 260.36 Z" class="st23"/></g><g id="shape1025-251" transform="translate(225.376,427.116) rotate(135.08)"><title>Sheet.1025</title><path d="M20.34 260.51 L21.64 260.51 L21.64 270.71 a0.412099 0.412099 0 0 1 -0.412099 0.412099 L19.92 271.12 a0.412099 0.412099 0 0 1 -0.412099 -0.412099 L19.51 261.33 a0.824199 0.824199 0 0 1 0.824199 -0.824199 L20.34 260.51 Z" class="st24"/></g></g><g id="shape1026-253" transform="translate(-6.99084,9.70484)"><title>Sheet.1026</title><desc>Virtual network</desc><rect width="45.308" height="29.196" x="0" y="241.929" class="st9"/><text x="8.58" y="253.53" class="st10">Virtual <tspan x="5.13" class="st25" dy="1.2em">network</tspan></text></g></g><g id="group1027-257" transform="translate(344.578,-46.0425)"><title>Sheet.1027</title><g id="group1028-258" transform="translate(0.884133,-5.51866)"><title>Icon-networking-61</title><g id="shape1029-259" transform="translate(18.4526,-13.0583)"><title>Sheet.1029</title><ellipse cx="1.593" cy="269.532" class="st21" rx="1.593" ry="1.593"/></g><g id="shape1030-262" transform="translate(13.37,-13.0445)"><title>Sheet.1030</title><ellipse cx="1.593" cy="269.532" class="st22" rx="1.593" ry="1.593"/></g><g id="shape1031-265" transform="translate(8.28746,-13.0445)"><title>Sheet.1031</title><ellipse cx="1.593" cy="269.532" class="st22" rx="1.593" ry="1.593"/></g><g id="shape1032-268" transform="translate(197.925,444.161) rotate(134.92)"><title>Sheet.1032</title><path d="M3.59 260.36 L4.88 260.36 a0.412099 0.412099 0 0 1 0.412099 0.412099 L5.29 270.3 a0.824199 0.824199 0 0 1 -0.824199 0.824199 L3.17 271.12 L3.17 260.77 a0.412099 0.412099 0 0 1 0.412099 -0.412099 Z" class="st23"/></g><g id="shape1033-270" transform="translate(191.446,62.2718) rotate(44.92)"><title>Sheet.1033</title><path d="M3.52 260.51 L4.81 260.51 a0.412099 0.412099 0 0 1 0.412099 0.412099 L5.22 271.12 L3.93 271.12 a0.824199 0.824199 0 0 1 -0.824199 -0.824199 L3.1 260.92 a0.412099 0.412099 0 0 1 0.412099 -0.412099 Z" class="st24"/></g><g id="shape1034-272" transform="translate(196.744,57.3432) rotate(45.08)"><title>Sheet.1034</title><path d="M19.44 260.36 L20.73 260.36 a0.824199 0.824199 0 0 1 0.824199 0.824199 L21.55 270.71 a0.412099 0.412099 0 0 1 -0.412099 0.412099 L19.85 271.12 a0.412099 0.412099 0 0 1 -0.412099 -0.412099 L19.44 260.36 Z" class="st23"/></g><g id="shape1035-274" transform="translate(225.376,427.116) rotate(135.08)"><title>Sheet.1035</title><path d="M20.34 260.51 L21.64 260.51 L21.64 270.71 a0.412099 0.412099 0 0 1 -0.412099 0.412099 L19.92 271.12 a0.412099 0.412099 0 0 1 -0.412099 -0.412099 L19.51 261.33 a0.824199 0.824199 0 0 1 0.824199 -0.824199 L20.34 260.51 Z" class="st24"/></g></g><g id="shape1036-276" transform="translate(-7.74084,13.4548)"><title>Sheet.1036</title><desc>Virtual network</desc><rect width="45.308" height="29.196" x="0" y="241.929" class="st9"/><text x="8.58" y="253.53" class="st10">Virtual <tspan x="5.13" class="st25" dy="1.2em">network</tspan></text></g></g><g id="group1037-280" transform="translate(382.978,-46.6425)"><title>Sheet.1037</title><g id="group1038-281" transform="translate(0.884133,-5.51866)"><title>Icon-networking-61</title><g id="shape1039-282" transform="translate(18.4526,-13.0583)"><title>Sheet.1039</title><ellipse cx="1.593" cy="269.532" class="st21" rx="1.593" ry="1.593"/></g><g id="shape1040-285" transform="translate(13.37,-13.0445)"><title>Sheet.1040</title><ellipse cx="1.593" cy="269.532" class="st22" rx="1.593" ry="1.593"/></g><g id="shape1041-288" transform="translate(8.28746,-13.0445)"><title>Sheet.1041</title><ellipse cx="1.593" cy="269.532" class="st22" rx="1.593" ry="1.593"/></g><g id="shape1042-291" transform="translate(197.925,444.161) rotate(134.92)"><title>Sheet.1042</title><path d="M3.59 260.36 L4.88 260.36 a0.412099 0.412099 0 0 1 0.412099 0.412099 L5.29 270.3 a0.824199 0.824199 0 0 1 -0.824199 0.824199 L3.17 271.12 L3.17 260.77 a0.412099 0.412099 0 0 1 0.412099 -0.412099 Z" class="st23"/></g><g id="shape1043-293" transform="translate(191.446,62.2718) rotate(44.92)"><title>Sheet.1043</title><path d="M3.52 260.51 L4.81 260.51 a0.412099 0.412099 0 0 1 0.412099 0.412099 L5.22 271.12 L3.93 271.12 a0.824199 0.824199 0 0 1 -0.824199 -0.824199 L3.1 260.92 a0.412099 0.412099 0 0 1 0.412099 -0.412099 Z" class="st24"/></g><g id="shape1044-295" transform="translate(196.744,57.3432) rotate(45.08)"><title>Sheet.1044</title><path d="M19.44 260.36 L20.73 260.36 a0.824199 0.824199 0 0 1 0.824199 0.824199 L21.55 270.71 a0.412099 0.412099 0 0 1 -0.412099 0.412099 L19.85 271.12 a0.412099 0.412099 0 0 1 -0.412099 -0.412099 L19.44 260.36 Z" class="st23"/></g><g id="shape1045-297" transform="translate(225.376,427.116) rotate(135.08)"><title>Sheet.1045</title><path d="M20.34 260.51 L21.64 260.51 L21.64 270.71 a0.412099 0.412099 0 0 1 -0.412099 0.412099 L19.92 271.12 a0.412099 0.412099 0 0 1 -0.412099 -0.412099 L19.51 261.33 a0.824199 0.824199 0 0 1 0.824199 -0.824199 L20.34 260.51 Z" class="st24"/></g></g><g id="shape1046-299" transform="translate(-6.24084,14.2048)"><title>Sheet.1046</title><desc>Virtual network</desc><rect width="45.308" height="29.196" x="0" y="241.929" class="st9"/><text x="8.58" y="253.53" class="st10">Virtual <tspan x="5.13" class="st25" dy="1.2em">network</tspan></text></g></g></g></svg>