<svg xmlns="http://www.w3.org/2000/svg" xmlns:svg="http://www.w3.org/2000/svg" id="Layer_1" width="126" height="126" x="0" y="0" version="1.1" viewBox="0 0 126 126" xml:space="preserve"><metadata id="metadata36"/><style id="style2" type="text/css">.st0{fill:#dedede}.st1{fill:#eaeaea}.st2{fill:#fff}.st3{fill:#3899c5}.st4{fill:#58b6da}.st5{fill:#1881ce}.st6{fill:#0271c5}.st7{fill:#797979}</style><g id="g29" transform="translate(-137,-8)"><title id="title4">a3g-logo</title><path id="path9" d="m 200,8 c -34.8,0 -63,28.2 -63,63 0,34.8 28.2,63 63,63 34.8,0 63,-28.2 63,-63 C 263,36.2 234.8,8 200,8 Z m 0,122.1 c -32.6,0 -59.1,-26.5 -59.1,-59.1 0,-32.6 26.5,-59.1 59.1,-59.1 32.6,0 59.1,26.5 59.1,59.1 0,32.6 -26.4,59.1 -59.1,59.1 0,0 0,0 0,0 z" class="st0" style="fill:#dedede"/><circle id="circle11" cx="200" cy="71" r="59.1" class="st1" style="fill:#eaeaea"/><polygon id="polygon13" points="200 58 200 55.3 200 15.9 189.6 52.2 196.7 56.2" class="st0" style="fill:#dedede"/><polygon id="polygon15" points="200 84 200 84.3 200 86.8 200 126.1 210.4 89.8 203.3 85.8 200.3 84.1" class="st0" style="fill:#dedede"/><polygon id="polygon17" points="200 58 200 55.3 200 15.9 210.4 52.2 203.3 56.2" class="st2" style="fill:#fff"/><polygon id="polygon19" points="200 84 200 84.3 200 86.8 200 126.1 189.6 89.8 196.7 85.8 199.7 84.1" class="st2" style="fill:#fff"/><polygon id="polygon21" points="187 71 184.3 71 144.9 71 181.2 81.4 185.2 74.3" class="st0" style="fill:#dedede"/><polygon id="polygon23" points="213 71 213.3 71 215.8 71 255.1 71 218.8 60.6 214.8 67.7 213.1 70.7" class="st0" style="fill:#dedede"/><polygon id="polygon25" points="187 71 184.3 71 144.9 71 181.2 60.6 185.2 67.7" class="st2" style="fill:#fff"/><polygon id="polygon27" points="213 71 213.3 71 215.8 71 255.1 71 218.8 81.4 214.8 74.3 213.1 71.3" class="st2" style="fill:#fff"/><polygon id="polygon29" points="187.2 71 200 71 170.8 41.8 187 71" class="st0" style="fill:#dedede"/><polygon id="polygon31" points="187.2 71 200 71 170.8 100.2 187 71" class="st2" style="fill:#fff"/><polygon id="polygon33" points="200 83.8 200 71 170.8 100.2 200 84" class="st0" style="fill:#dedede"/><polygon id="polygon35" points="200 83.8 200 71 229.2 100.2 200 84" class="st2" style="fill:#fff"/><polygon id="polygon37" points="212.8 71 200 71 229.2 100.2 213 71" class="st0" style="fill:#dedede"/><polygon id="polygon39" points="212.8 71 200 71 229.2 41.8 213 71" class="st2" style="fill:#fff"/><polygon id="polygon41" points="200 58.2 200 71 229.2 41.8 200 58" class="st0" style="fill:#dedede"/><polygon id="polygon43" points="200 58.2 200 71 170.8 41.8 200 58" class="st2" style="fill:#fff"/><polygon id="polygon45" points="207.9 78.9 239.1 32.2 192.1 63.1 161.2 110.1" class="st3" style="fill:#3899c5"/><polygon id="polygon47" points="200.2 71.2 161.2 110.1 207.9 78.9" class="st4" style="fill:#58b6da"/><polygon id="polygon49" points="200.2 71.2 239.1 32.2 192.1 63.1" class="st5" style="fill:#1881ce"/><polygon id="polygon51" points="199.8 70.8 239.1 32.2 207.9 78.9" class="st6" style="fill:#0271c5"/><circle id="circle53" cx="200" cy="71" r="3.9" class="st7" style="fill:#797979"/></g></svg>