<svg xmlns="http://www.w3.org/2000/svg" xmlns:ev="http://www.w3.org/2001/xml-events" xmlns:xlink="http://www.w3.org/1999/xlink" width="558.75" height="297" class="st24" color-interpolation-filters="sRGB" viewBox="0 0 419.062 222.75" xml:space="preserve"><style type="text/css">.st1{fill:#fff;stroke:none;stroke-linecap:round;stroke-linejoin:round;stroke-width:.75}.st2{fill:none}.st3,.st4{stroke:#000;stroke-linecap:butt;stroke-width:.75}.st4{fill:#000}.st5{fill:#0072c6;stroke:none}.st5,.st6,.st7{stroke-linecap:butt;stroke-width:.75}.st6{fill:#59b4d9;stroke:none}.st7{stroke:#000}.st7,.st8{fill:#fff}.st8,.st9{stroke:#0080f0;stroke-linecap:butt;stroke-width:1.5}.st10{fill:#fff}.st11{fill:#7a7a7a}.st12{stroke:none;stroke-linecap:butt;stroke-width:.75}.st13{fill:#a0a1a2}.st13,.st14,.st15,.st16{stroke:none;stroke-linecap:butt;stroke-width:.75}.st14{fill:#fff;fill-opacity:.2}.st15{fill:#b8d432}.st16,.st17{fill:#fff;fill-opacity:.7}.st17{fill-opacity:.4}.st18{fill:none;stroke:none;stroke-linecap:round;stroke-linejoin:round;stroke-width:.75}.st19{fill:#000;font-family:Segoe UI;font-size:.833336em}.st20{fill:#50e6ff;stroke-width:.75}.st20,.st21,.st22{stroke:none;stroke-linecap:butt}.st21,.st22,.st23{stroke-width:.75}.st21{fill:#1490df}.st22{fill:url(#grad0-147)}.st23{fill:#fff;stroke:#fff;stroke-linecap:round;stroke-linejoin:round}.st24{fill:none;fill-rule:evenodd;font-size:12px;overflow:visible;stroke-linecap:square;stroke-miterlimit:3}</style><defs id="Patterns_And_Gradients"><linearGradient id="grad0-147" x1="0" x2="1" y1="0" y2="0" gradientTransform="rotate(-90 0.5 0.5)"><stop offset="0" stop-color="#fea11b" stop-opacity="1"/><stop offset=".285" stop-color="#fea51a" stop-opacity="1"/><stop offset=".545" stop-color="#feb018" stop-opacity="1"/><stop offset=".8" stop-color="#ffc314" stop-opacity="1"/><stop offset="1" stop-color="#ffd70f" stop-opacity="1"/></linearGradient></defs><g><title>VBackground-1</title><g id="shape1000-1"><title>Solid.1000</title><rect width="419.062" height="222.75" x="0" y="0" class="st1"/></g></g><g><title>competing-consumers</title><g id="shape887-3" transform="translate(76.2975,-147.917)"><title>Sheet.887</title><path d="M0 222.75 L30.11 222.75 L0 222.75 Z" class="st2"/><path d="M0 222.75 L30.11 222.75" class="st3"/></g><g id="shape888-6" transform="translate(105.098,-145.292)"><title>Sheet.888</title><path d="M5.25 220.13 L0 222.75 L1.31 220.13 L0 217.5 L5.25 220.13 Z" class="st4"/></g><g id="group890-8" transform="translate(238.313,-32.0417)"><title>Sheet.890</title><g id="group891-9"><title>Sheet.891</title><g id="shape892-10"><title>Sheet.892</title><path d="M0.62 185.25 C0.25 185.25 0 185.5 0 185.87 L0 193.37 C0 193.75 0.25 194 0.62 194 L4.37 194 C4.75 194 5 193.75 5 193.37 L5 190.25 L32.5 190.25 L32.5 193.38 C32.5 193.75 32.75 194 33.25 194 L36.87 194 C37.25 194 37.5 193.75 37.5 193.38 L37.5 185.88 C37.5 185.5 37.25 185.25 36.88 185.25 L0.62 185.25 ZM36.88 222.75 C37.25 222.75 37.5 222.5 37.5 222.13 L37.5 214.75 C37.5 214.38 37.25 214.13 36.88 214.13 L33.25 214.13 C32.88 214.13 32.63 214.38 32.63 214.75 L32.63 217.75 L5 217.75 L5 214.63 C5 214.25 4.75 214 4.25 214 L0.62 214 C0.25 214 0 214.25 0 214.75 L0 222.13 C0 222.5 0.25 222.75 0.62 222.75 L36.88 222.75 Z" class="st5"/></g><g id="shape893-12" transform="translate(8.12475,-10.725)"><title>Sheet.893</title><path d="M14.27 215.55 C13.3 216.52 12 217.05 10.63 217.05 C9.25 217.05 7.96 216.51 6.98 215.54 L0.01 208.57 L0.01 222.75 L21.26 222.75 L21.26 208.57 L14.28 215.54 L14.27 215.55 ZM10.63 216.02 A4.0875 4.0875 -180 0 0 13.54 214.82 L21.25 207.1 L21.25 206.7 L0 206.7 L0 207.11 L7.72 214.82 A4.0875 4.0875 -180 0 0 10.63 216.02 Z" class="st6"/></g></g></g><g id="group896-14" transform="translate(174.9,-43.2842)"><title>Sheet.896</title><g id="shape897-15" transform="translate(-3.07754E-13,-2.595)"><title>Sheet.897</title><path d="M0.04 146.96 L0 222.75 L58.26 222.71 L0.04 146.96 Z" class="st2"/><path d="M0.04 146.96 L0 222.75 L58.26 222.71" class="st3"/></g><g id="shape898-18" transform="translate(56.9475,5.68434E-14)"><title>Sheet.898</title><path d="M5.25 220.12 L0 222.75 L1.31 220.12 L0 217.5 L5.25 220.12 Z" class="st4"/></g></g><g id="shape900-20" transform="translate(111.188,-121.667)"><title>Sheet.900</title><path d="M0 214.88 A7.87518 7.87518 -180 0 0 7.88 222.75 L119.63 222.75 A7.87518 7.87518 -180 0 0 127.5 214.88 L127.5 178.13 A7.87518 7.87518 -180 0 0 119.63 170.25 L7.88 170.25 A7.87518 7.87518 -180 0 0 0 178.13 L0 214.88 Z" class="st7"/></g><g id="group902-22" transform="translate(223.313,-99.5417)"><title>Sheet.902</title><g id="group903-23"><title>Sheet.903</title><g id="shape904-24"><title>Sheet.904</title><path d="M0.62 185.25 C0.25 185.25 0 185.5 0 185.87 L0 193.37 C0 193.75 0.25 194 0.62 194 L4.37 194 C4.75 194 5 193.75 5 193.37 L5 190.25 L32.5 190.25 L32.5 193.38 C32.5 193.75 32.75 194 33.25 194 L36.87 194 C37.25 194 37.5 193.75 37.5 193.38 L37.5 185.88 C37.5 185.5 37.25 185.25 36.88 185.25 L0.62 185.25 ZM36.88 222.75 C37.25 222.75 37.5 222.5 37.5 222.13 L37.5 214.75 C37.5 214.38 37.25 214.13 36.88 214.13 L33.25 214.13 C32.88 214.13 32.63 214.38 32.63 214.75 L32.63 217.75 L5 217.75 L5 214.63 C5 214.25 4.75 214 4.25 214 L0.62 214 C0.25 214 0 214.25 0 214.75 L0 222.13 C0 222.5 0.25 222.75 0.62 222.75 L36.88 222.75 Z" class="st5"/></g><g id="shape905-26" transform="translate(8.12475,-10.725)"><title>Sheet.905</title><path d="M14.27 215.55 C13.3 216.52 12 217.05 10.63 217.05 C9.25 217.05 7.96 216.51 6.98 215.54 L0.01 208.57 L0.01 222.75 L21.26 222.75 L21.26 208.57 L14.28 215.54 L14.27 215.55 ZM10.63 216.02 A4.0875 4.0875 -180 0 0 13.54 214.82 L21.25 207.1 L21.25 206.7 L0 206.7 L0 207.11 L7.72 214.82 A4.0875 4.0875 -180 0 0 10.63 216.02 Z" class="st6"/></g></g></g><g id="shape908-28" transform="translate(125.813,-145.854)"><title>Sheet.908</title><rect width="22.5" height="12.375" x="0" y="210.375" class="st8"/></g><g id="shape909-30" transform="translate(125.813,-145.854)"><title>Sheet.909</title><path d="M0 210.38 L11.25 220.5 L22.5 210.38 L0 210.38 ZM0 222.75 L6.98 216.56 L0 222.75 ZM22.5 222.75 L15.53 216.56 L22.5 222.75 Z" class="st2"/><path d="M0 210.38 L11.25 220.5 L22.5 210.38M0 222.75 L6.98 216.56M22.5 222.75 L15.53 216.56" class="st9"/></g><g id="group911-33" transform="translate(155.813,-144.542)"><title>Sheet.911</title><g id="shape912-34"><title>Sheet.912</title><path d="M0 222.75 L0 210.38 L11.25 200.25 L22.5 210.38 L22.5 222.75 L0 222.75 Z" class="st8"/></g><g id="shape913-36" transform="translate(5.625,-2.25)"><title>Sheet.913</title><path d="M0 217.69 L0 205.88 L9.34 205.88 L11.25 207.56 L11.25 217.69 L5.63 222.75 L0 217.69 Z" class="st8"/></g><g id="shape914-38"><title>Sheet.914</title><path d="M0 222.75 L11.25 212.63 L22.5 222.75 L0 222.75 Z" class="st10"/><path d="M0 222.75 L11.25 212.63 L22.5 222.75" class="st9"/></g><g id="shape915-41" transform="translate(0,-6.1875)"><title>Sheet.915</title><path d="M0 216.56 L6.86 222.75 L0 216.56 ZM22.5 216.56 L15.64 222.75 L22.5 216.56 ZM7.88 212.06 L14.63 212.06 L7.88 212.06 ZM7.88 214.76 L11.25 214.76 L7.88 214.76 ZM7.88 217.46 L14.63 217.46 L7.88 217.46 Z" class="st2"/><path d="M0 216.56 L6.86 222.75M22.5 216.56 L15.64 222.75M7.88 212.06 L14.63 212.06M7.88 214.76 L11.25 214.76M7.88 217.46 L14.63 217.46" class="st9"/></g></g><g id="group918-44" transform="translate(193.313,-144.542)"><title>Sheet.918</title><g id="shape919-45"><title>Sheet.919</title><path d="M0 222.75 L0 210.38 L11.25 200.25 L22.5 210.38 L22.5 222.75 L0 222.75 Z" class="st8"/></g><g id="shape920-47" transform="translate(5.625,-2.25)"><title>Sheet.920</title><path d="M0 217.69 L0 205.88 L9.34 205.88 L11.25 207.56 L11.25 217.69 L5.63 222.75 L0 217.69 Z" class="st8"/></g><g id="shape921-49"><title>Sheet.921</title><path d="M0 222.75 L11.25 212.63 L22.5 222.75 L0 222.75 Z" class="st10"/><path d="M0 222.75 L11.25 212.63 L22.5 222.75" class="st9"/></g><g id="shape922-52" transform="translate(0,-6.1875)"><title>Sheet.922</title><path d="M0 216.56 L6.86 222.75 L0 216.56 ZM22.5 216.56 L15.64 222.75 L22.5 216.56 ZM7.88 212.06 L14.63 212.06 L7.88 212.06 ZM7.88 214.76 L11.25 214.76 L7.88 214.76 ZM7.88 217.46 L14.63 217.46 L7.88 217.46 Z" class="st2"/><path d="M0 216.56 L6.86 222.75M22.5 216.56 L15.64 222.75M7.88 212.06 L14.63 212.06M7.88 214.76 L11.25 214.76M7.88 217.46 L14.63 217.46" class="st9"/></g></g><g id="shape925-55" transform="translate(238.688,-147.879)"><title>Sheet.925</title><path d="M0 222.75 L52.5 222.75 L52.5 188.18 L97.98 188.21 L0 222.75 Z" class="st2"/><path d="M0 222.75 L52.5 222.75 L52.5 188.18 L97.98 188.21" class="st3"/></g><g id="shape926-58" transform="translate(335.355,-179.799)"><title>Sheet.926</title><path d="M5.25 220.13 L0 222.75 L1.31 220.13 L0 217.5 L5.25 220.13 Z" class="st4"/></g><g id="group928-60" transform="translate(318.313,-174.542)"><title>Sheet.928</title><g id="shape929-61"><title>Sheet.929</title><path d="M0 222.75 L0 214.5 L7.5 207.75 L15 214.5 L15 222.75 L0 222.75 Z" class="st8"/></g><g id="shape930-63" transform="translate(3.75,-1.5)"><title>Sheet.930</title><path d="M0 219.38 L0 211.5 L6.22 211.5 L7.5 212.63 L7.5 219.38 L3.75 222.75 L0 219.38 Z" class="st8"/></g><g id="shape931-65"><title>Sheet.931</title><path d="M0 222.75 L7.5 216 L15 222.75 L0 222.75 Z" class="st10"/><path d="M0 222.75 L7.5 216 L15 222.75" class="st9"/></g><g id="shape932-68" transform="translate(0,-4.125)"><title>Sheet.932</title><path d="M0 218.63 L4.58 222.75 L0 218.63 ZM15 218.63 L10.43 222.75 L15 218.63 ZM5.25 215.63 L9.75 215.63 L5.25 215.63 ZM5.25 217.43 L7.5 217.43 L5.25 217.43 ZM5.25 219.23 L9.75 219.23 L5.25 219.23 Z" class="st2"/><path d="M0 218.63 L4.58 222.75M15 218.63 L10.43 222.75M5.25 215.63 L9.75 215.63M5.25 217.43 L7.5 217.43M5.25 219.23 L9.75 219.23" class="st9"/></g></g><g id="shape935-71" transform="translate(238.688,-121.667)"><title>Sheet.935</title><path d="M0 196.5 L52.5 196.54 L52.5 222.75 L100.22 222.75 L0 196.5 Z" class="st2"/><path d="M0 196.5 L52.5 196.54 L52.5 222.75 L100.22 222.75" class="st3"/></g><g id="shape936-74" transform="translate(337.598,-119.042)"><title>Sheet.936</title><path d="M5.25 220.13 L0 222.75 L1.31 220.13 L0 217.5 L5.25 220.13 Z" class="st4"/></g><g id="group938-76" transform="translate(320.813,-114.542)"><title>Sheet.938</title><g id="shape939-77"><title>Sheet.939</title><path d="M0 222.75 L0 214.5 L7.5 207.75 L15 214.5 L15 222.75 L0 222.75 Z" class="st8"/></g><g id="shape940-79" transform="translate(3.75,-1.5)"><title>Sheet.940</title><path d="M0 219.38 L0 211.5 L6.22 211.5 L7.5 212.63 L7.5 219.38 L3.75 222.75 L0 219.38 Z" class="st8"/></g><g id="shape941-81"><title>Sheet.941</title><path d="M0 222.75 L7.5 216 L15 222.75 L0 222.75 Z" class="st10"/><path d="M0 222.75 L7.5 216 L15 222.75" class="st9"/></g><g id="shape942-84" transform="translate(0,-4.125)"><title>Sheet.942</title><path d="M0 218.63 L4.58 222.75 L0 218.63 ZM15 218.63 L10.43 222.75 L15 218.63 ZM5.25 215.63 L9.75 215.63 L5.25 215.63 ZM5.25 217.43 L7.5 217.43 L5.25 217.43 ZM5.25 219.23 L9.75 219.23 L5.25 219.23 Z" class="st2"/><path d="M0 218.63 L4.58 222.75M15 218.63 L10.43 222.75M5.25 215.63 L9.75 215.63M5.25 217.43 L7.5 217.43M5.25 219.23 L9.75 219.23" class="st9"/></g></g><g id="group849-87" transform="translate(43.3125,-128.68)"><title>Sheet.849</title><g id="group850-88"><title>Sheet.850</title><g id="shape851-89" transform="translate(6.49125,2.84217E-14)"><title>Sheet.851</title><path d="M17.83 215.54 L7.63 215.54 C8.86 219.86 7.21 220.49 0 220.49 L0 222.75 L24.52 222.75 L24.52 220.49 C17.31 220.49 16.6 219.87 17.83 215.54 L17.83 215.54 Z" class="st11"/><path d="M17.83 215.54 L7.63 215.54 C8.86 219.86 7.21 220.49 0 220.49 L0 222.75 L24.52 222.75 L24.52 220.49 C17.31 220.49 16.6 219.87 17.83 215.54" class="st12"/></g><g id="shape852-92" transform="translate(0.00075,-7.20975)"><title>Sheet.852</title><path d="M35.23 195.35 L2.04 195.35 C0.91 195.35 0 196.36 0 197.48 L0 220.63 C0 221.75 0.91 222.75 2.04 222.75 L35.23 222.75 C36.36 222.75 37.5 221.75 37.5 220.63 L37.5 197.48 C37.5 196.35 36.36 195.35 35.23 195.35 Z" class="st13"/></g><g id="shape853-94" transform="translate(0,-7.209)"><title>Sheet.853</title><path d="M35.26 195.35 C35.25 195.35 35.24 195.35 35.23 195.35 L2.04 195.35 C0.91 195.35 0 196.36 0 197.48 L0 220.63 C0 221.75 0.91 222.75 2.04 222.75 L2.83 222.75 L35.26 195.35 Z" class="st14"/></g><g id="group854-96" transform="translate(2.85,-10.0942)"><title>Sheet.854</title><g id="shape855-97" transform="translate(0,-0.0015)"><title>Sheet.855</title><rect width="31.731" height="21.63" x="0" y="201.12" class="st6"/></g><g id="shape856-99"><title>Sheet.856</title><path d="M29.05 201.08 L29.05 201.08 L0 201.12 L0 222.75 L0.04 222.75 L0.04 201.12 L29.05 201.08 Z" class="st6"/></g></g><g id="shape857-101" transform="translate(6.49125,-0.00075)"><title>Sheet.857</title><rect width="24.519" height="2.265" x="0" y="220.485" class="st13"/></g><g id="shape858-103" transform="translate(18.0742,-32.508)"><title>Sheet.858</title><path d="M1.06 222.22 a0.5325 0.5325 0 0 1 -0.5325 0.5325 a0.5325 0.5325 0 0 1 -0.53175 -0.5325 a0.5325 0.5325 0 0 1 0.53175 -0.5325 a0.5325 0.5325 0 0 1 0.5325 0.5325 Z" class="st15"/></g><g id="group859-105" transform="translate(11.424,-12.3022)"><title>Sheet.859</title><g id="shape860-106" transform="translate(0.933,-9.264)"><title>Sheet.860</title><path d="M6.8 222.75 C6.77 222.75 6.73 222.74 6.7 222.72 L0.1 218.91 a0.2025 0.2025 0 0 1 -0.099 -0.17325 C0 218.67 0.04 218.6 0.1 218.56 L6.66 214.78 C6.72 214.74 6.8 214.74 6.86 214.78 L13.46 218.59 C13.53 218.63 13.56 218.69 13.56 218.76 C13.56 218.83 13.52 218.9 13.46 218.93 L6.9 222.72 a0.2025 0.2025 0 0 1 -0.10125 0.0285 L6.8 222.75 Z" class="st10"/><path d="M6.8 222.75 C6.77 222.75 6.73 222.74 6.7 222.72 L0.1 218.91 a0.2025 0.2025 0 0 1 -0.099 -0.17325 C0 218.67 0.04 218.6 0.1 218.56 L6.66 214.78 C6.72 214.74 6.8 214.74 6.86 214.78 L13.46 218.59 C13.53 218.63 13.56 218.69 13.56 218.76 C13.56 218.83 13.52 218.9 13.46 218.93 L6.9 222.72 a0.2025 0.2025 0 0 1 -0.10125 0.0285" class="st12"/></g><g id="shape861-109"><title>Sheet.861</title><path d="M6.79 222.75 C6.75 222.75 6.71 222.74 6.69 222.72 L0.1 218.92 a0.195 0.195 0 0 1 -0.102 -0.17325 L0 211.13 C0 211.05 0.04 210.99 0.1 210.95 C0.17 210.92 0.24 210.92 0.3 210.95 L6.89 214.75 a0.21 0.21 0 0 1 0.0975 0.17475 L6.98 222.55 C6.98 222.62 6.94 222.69 6.89 222.72 a0.21 0.21 0 0 1 -0.09975 0.027 Z" class="st16"/></g><g id="shape862-111" transform="translate(8.45025,-8.52651E-14)"><title>Sheet.862</title><path d="M0.2 222.75 C0.16 222.75 0.13 222.74 0.1 222.72 a0.2025 0.2025 0 0 1 -0.09675 -0.17325 L0 214.97 C0 214.9 0.04 214.84 0.1 214.8 L6.68 211 a0.195 0.195 0 0 1 0.198 -5.68434E-14 C6.94 211.04 6.98 211.1 6.98 211.18 L6.98 218.75 a0.195 0.195 0 0 1 -0.10125 0.17325 L0.3 222.72 C0.27 222.73 0.23 222.74 0.2 222.74 L0.2 222.75 Z" class="st17"/><path d="M0.2 222.75 C0.16 222.75 0.13 222.74 0.1 222.72 a0.2025 0.2025 0 0 1 -0.09675 -0.17325 L0 214.97 C0 214.9 0.04 214.84 0.1 214.8 L6.68 211 a0.195 0.195 0 0 1 0.198 -5.68434E-14 C6.94 211.04 6.98 211.1 6.98 211.18 L6.98 218.75 a0.195 0.195 0 0 1 -0.10125 0.17325 L0.3 222.72 C0.27 222.73 0.23 222.74 0.2 222.74" class="st12"/></g></g></g></g><g id="shape944-114" transform="translate(340.313,-160.667)"><title>Sheet.944</title><desc>Consumer 1</desc><rect width="63" height="13.5" x="0" y="209.25" class="st18"/><text x="4.97" y="219" class="st19">Consumer 1</text></g><g id="shape945-117" transform="translate(340.313,-100.667)"><title>Sheet.945</title><desc>Consumer 2</desc><rect width="63" height="13.5" x="0" y="209.25" class="st18"/><text x="4.97" y="219" class="st19">Consumer 2</text></g><g id="shape946-120" transform="translate(212.063,-85.6667)"><title>Sheet.946</title><desc>Service Bus</desc><rect width="63" height="13.5" x="0" y="209.25" class="st18"/><text x="6.77" y="219" class="st19">Service Bus</text></g><g id="shape947-123" transform="translate(203.625,-18.1667)"><title>Sheet.947</title><desc>Dead-letter queue</desc><rect width="100.223" height="13.5" x="0" y="209.25" class="st18"/><text x="9.73" y="219" class="st19">Dead-letter queue</text></g><g id="shape948-126" transform="translate(317.938,-162.167)"><title>Sheet.948</title><desc>1</desc><rect width="15.75" height="11.25" x="0" y="211.5" class="st18"/><text x="5.18" y="220.13" class="st19">1</text></g><g id="shape949-129" transform="translate(320.438,-101.417)"><title>Sheet.949</title><desc>2</desc><rect width="15.75" height="11.25" x="0" y="211.5" class="st18"/><text x="5.18" y="220.13" class="st19">2</text></g><g id="group950-132" transform="translate(357.358,-171.583)"><title>Sheet.950</title><g id="group951-133"><title>Icon-compute-29</title><g id="group952-134" transform="translate(0,-5.49635)"><title>g56395</title><g id="shape953-135" transform="translate(159.302,370.553) rotate(134.919)"><title>path56391</title><path d="M0.44 211.54 L1.78 211.54 a0.430936 0.430936 0 0 1 0.430936 0.430936 L2.21 221.89 a0.860259 0.860259 0 0 1 -0.860259 0.860259 L0 222.75 L0 211.97 a0.430936 0.430936 0 0 1 0.430936 -0.430936 L0.44 211.54 Z" class="st20"/></g><g id="shape954-137" transform="translate(157.285,57.0856) rotate(44.919)"><title>path56393</title><path d="M0.43 211.69 L1.78 211.69 a0.430936 0.430936 0 0 1 0.430936 0.430936 L2.21 222.75 L0.86 222.75 a0.860259 0.860259 0 0 1 -0.860259 -0.860259 L0 212.12 a0.430936 0.430936 0 0 1 0.430936 -0.427708 Z" class="st21"/></g></g><g id="group955-139" transform="translate(20.0656,-5.49206)"><title>g56401</title><g id="shape956-140" transform="translate(157.731,63.9036) rotate(45.081)"><title>path56397</title><path d="M0 211.54 L1.34 211.54 a0.860259 0.860259 0 0 1 0.860259 0.860259 L2.2 222.32 a0.430936 0.430936 0 0 1 -0.430936 0.430936 L0.44 222.75 a0.430936 0.430936 0 0 1 -0.430936 -0.430936 L0 211.54 L0 211.54 Z" class="st20"/></g><g id="shape957-142" transform="translate(158.986,364.708) rotate(135.081)"><title>path56399</title><path d="M0.86 211.69 L2.21 211.69 L2.21 222.32 a0.430936 0.430936 0 0 1 -0.430936 0.430936 L0.43 222.75 a0.430936 0.430936 0 0 1 -0.430936 -0.430936 L0 212.55 a0.860259 0.860259 0 0 1 0.860259 -0.860259 L0.86 211.69 Z" class="st21"/></g></g><g id="shape958-144" transform="translate(7.79968,2.84217E-14)"><title>path56403</title><path d="M6.12 210.83 L0.32 210.83 a0.311501 0.311501 0 0 1 -0.322799 -0.292133 a0.267923 0.267923 0 0 1 0.0290519 -0.12105 L6.97 196.67 a0.332483 0.332483 0 0 1 0.300203 -0.171083 L14.13 196.5 a0.311501 0.311501 0 0 1 0.322799 0.292133 a0.266309 0.266309 0 0 1 -0.0564898 0.161399 L6.24 207.7 L14.19 207.7 a0.311501 0.311501 0 0 1 0.322799 0.292133 a0.284063 0.284063 0 0 1 -0.0839277 0.196907 L1.21 221.94 C1.09 222.02 0.2 222.75 0.64 221.64 L6.12 210.83 Z" class="st22"/></g></g></g><g id="group959-148" transform="translate(357.025,-111.167)"><title>Sheet.959</title><g id="group960-149"><title>Icon-compute-29</title><g id="group961-150" transform="translate(0,-5.49635)"><title>g56395</title><g id="shape962-151" transform="translate(159.302,370.553) rotate(134.919)"><title>path56391</title><path d="M0.44 211.54 L1.78 211.54 a0.430936 0.430936 0 0 1 0.430936 0.430936 L2.21 221.89 a0.860259 0.860259 0 0 1 -0.860259 0.860259 L0 222.75 L0 211.97 a0.430936 0.430936 0 0 1 0.430936 -0.430936 L0.44 211.54 Z" class="st20"/></g><g id="shape963-153" transform="translate(157.285,57.0856) rotate(44.919)"><title>path56393</title><path d="M0.43 211.69 L1.78 211.69 a0.430936 0.430936 0 0 1 0.430936 0.430936 L2.21 222.75 L0.86 222.75 a0.860259 0.860259 0 0 1 -0.860259 -0.860259 L0 212.12 a0.430936 0.430936 0 0 1 0.430936 -0.427708 Z" class="st21"/></g></g><g id="group964-155" transform="translate(20.0656,-5.49206)"><title>g56401</title><g id="shape965-156" transform="translate(157.731,63.9036) rotate(45.081)"><title>path56397</title><path d="M0 211.54 L1.34 211.54 a0.860259 0.860259 0 0 1 0.860259 0.860259 L2.2 222.32 a0.430936 0.430936 0 0 1 -0.430936 0.430936 L0.44 222.75 a0.430936 0.430936 0 0 1 -0.430936 -0.430936 L0 211.54 L0 211.54 Z" class="st20"/></g><g id="shape966-158" transform="translate(158.986,364.708) rotate(135.081)"><title>path56399</title><path d="M0.86 211.69 L2.21 211.69 L2.21 222.32 a0.430936 0.430936 0 0 1 -0.430936 0.430936 L0.43 222.75 a0.430936 0.430936 0 0 1 -0.430936 -0.430936 L0 212.55 a0.860259 0.860259 0 0 1 0.860259 -0.860259 L0.86 211.69 Z" class="st21"/></g></g><g id="shape967-160" transform="translate(7.79968,2.84217E-14)"><title>path56403</title><path d="M6.12 210.83 L0.32 210.83 a0.311501 0.311501 0 0 1 -0.322799 -0.292133 a0.267923 0.267923 0 0 1 0.0290519 -0.12105 L6.97 196.67 a0.332483 0.332483 0 0 1 0.300203 -0.171083 L14.13 196.5 a0.311501 0.311501 0 0 1 0.322799 0.292133 a0.266309 0.266309 0 0 1 -0.0564898 0.161399 L6.24 207.7 L14.19 207.7 a0.311501 0.311501 0 0 1 0.322799 0.292133 a0.284063 0.284063 0 0 1 -0.0839277 0.196907 L1.21 221.94 C1.09 222.02 0.2 222.75 0.64 221.64 L6.12 210.83 Z" class="st22"/></g></g></g><g id="shape968-163" transform="translate(160.313,-131.792)"><title>Sheet.968</title><desc>1</desc><rect width="15.75" height="11.25" x="0" y="211.5" class="st18"/><text x="5.18" y="220.13" class="st19">1</text></g><g id="shape969-166" transform="translate(195.188,-131.792)"><title>Sheet.969</title><desc>2</desc><rect width="15.75" height="11.25" x="0" y="211.5" class="st18"/><text x="5.18" y="220.13" class="st19">2</text></g><g id="shape970-169" transform="translate(17.4375,-114.917)"><title>Sheet.970</title><desc>App (Producer 1)</desc><rect width="87.75" height="13.5" x="0" y="209.25" class="st18"/><text x="6.41" y="219" class="st19">App (Producer 1)</text></g><g id="shape973-172" transform="translate(153.563,-69.9167)"><title>Sheet.973</title><rect width="47.25" height="13.5" x="0" y="209.25" class="st23"/></g><g id="shape972-174" transform="translate(144.563,-71.0417)"><title>Sheet.972</title><desc>Fail</desc><rect width="56.25" height="11.25" x="0" y="211.5" class="st18"/><text x="20.72" y="220.13" class="st19">Fail</text></g></g></svg>