<svg xmlns="http://www.w3.org/2000/svg" xmlns:xlink="http://www.w3.org/1999/xlink" width="58" height="69" version="1.1" viewBox="0 0 58 69"><g id="Canvas" fill="none"><g id="ai-platform"><g id="Vector"><path fill="#6DC2E9" d="M 29.059 0C 13.0142 0 0 12.9597 0 28.9374L 0 69L 48.194 69L 48.194 59.4725C 48.0157 59.4725 47.778 59.5317 47.5997 59.5317C 43.5588 59.5317 40.0527 57.3422 38.1511 54.1466L 48.1346 54.1466L 48.1346 45.8619L 57.9992 45.8619L 57.9992 28.9374C 58.118 12.9597 45.1039 0 29.059 0Z"/></g><g id="Vector_2"><path stroke="#fff" stroke-miterlimit="10" stroke-width="1.5" d="M 3.68438 1.83448C 3.68438 2.84763 2.8596 3.66895 1.84219 3.66895C 0.824774 3.66895 0 2.84763 0 1.83448C 0 0.821324 0.824774 -9.02964e-07 1.84219 -9.02964e-07C 2.8596 -9.02964e-07 3.68438 0.821324 3.68438 1.83448Z" transform="translate(26.4443 26.9846)"/></g><g id="Vector_3"><path stroke="#fff" stroke-miterlimit="10" stroke-width="1.5" d="M 3.68438 1.83448C 3.68438 2.84763 2.8596 3.66895 1.84219 3.66895C 0.824774 3.66895 0 2.84763 0 1.83448C 0 0.821324 0.824774 -4.51482e-07 1.84219 -4.51482e-07C 2.8596 -4.51482e-07 3.68438 0.821324 3.68438 1.83448Z" transform="translate(28.8213 36.2754)"/></g><g id="Vector_4"><path stroke="#fff" stroke-miterlimit="10" stroke-width="1.5" d="M 3.68437 1.83448C 3.68437 2.84763 2.8596 3.66895 1.84219 3.66895C 0.824775 3.66895 -2.2669e-07 2.84763 -2.2669e-07 1.83448C -2.2669e-07 0.821324 0.824775 -4.51482e-07 1.84219 -4.51482e-07C 2.8596 -4.51482e-07 3.68437 0.821324 3.68437 1.83448Z" transform="translate(16.2825 36.2754)"/></g><g id="Vector_5"><path stroke="#fff" stroke-miterlimit="10" stroke-width="1.5" d="M 3.68437 1.83448C 3.68437 2.84763 2.8596 3.66895 1.84219 3.66895C 0.824775 3.66895 4.5338e-07 2.84763 4.5338e-07 1.83448C 4.5338e-07 0.821322 0.824775 0 1.84219 0C 2.8596 0 3.68437 0.821322 3.68437 1.83448Z" transform="translate(12.0039 40.5359)"/></g><g id="Vector_6"><path stroke="#fff" stroke-miterlimit="10" stroke-width="1.5" d="M 3.68438 1.83448C 3.68438 2.84763 2.8596 3.66895 1.84219 3.66895C 0.824776 3.66895 0 2.84763 0 1.83448C 0 0.821324 0.824776 -9.02964e-07 1.84219 -9.02964e-07C 2.8596 -9.02964e-07 3.68438 0.821324 3.68438 1.83448Z" transform="translate(5.94238 28.168)"/></g><g id="Vector_7"><path stroke="#fff" stroke-miterlimit="10" stroke-width="1.5" d="M 3.68438 1.83448C 3.68438 2.84763 2.8596 3.66895 1.84219 3.66895C 0.824776 3.66895 0 2.84763 0 1.83448C 0 0.821323 0.824776 9.02964e-07 1.84219 9.02964e-07C 2.8596 9.02964e-07 3.68438 0.821323 3.68438 1.83448Z" transform="translate(5.94238 20.0608)"/></g><g id="Vector_8"><path stroke="#fff" stroke-miterlimit="10" stroke-width="1.5" d="M 3.68437 1.83448C 3.68437 2.84763 2.8596 3.66895 1.84219 3.66895C 0.824775 3.66895 -4.5338e-07 2.84763 -4.5338e-07 1.83448C -4.5338e-07 0.821323 0.824775 4.51482e-07 1.84219 4.51482e-07C 2.8596 4.51482e-07 3.68437 0.821323 3.68437 1.83448Z" transform="translate(10.5776 16.3921)"/></g><g id="Vector_9"><path stroke="#fff" stroke-miterlimit="10" stroke-width="1.5" d="M 3.68438 1.83448C 3.68438 2.84763 2.8596 3.66895 1.84219 3.66895C 0.824774 3.66895 0 2.84763 0 1.83448C 0 0.821323 0.824774 -2.25741e-07 1.84219 -2.25741e-07C 2.8596 -2.25741e-07 3.68438 0.821323 3.68438 1.83448Z" transform="translate(18.1248 8.81738)"/></g><g id="Vector_10"><path stroke="#fff" stroke-miterlimit="10" stroke-width="1.5" d="M 3.68437 1.83448C 3.68437 2.84763 2.8596 3.66895 1.84219 3.66895C 0.824775 3.66895 4.5338e-07 2.84763 4.5338e-07 1.83448C 4.5338e-07 0.821323 0.824775 4.51482e-07 1.84219 4.51482e-07C 2.8596 4.51482e-07 3.68437 0.821323 3.68437 1.83448Z" transform="translate(12.0039 30.0027)"/></g><g id="Vector_11"><path stroke="#fff" stroke-miterlimit="10" stroke-width="1.5" d="M 3.68437 1.83448C 3.68437 2.84763 2.8596 3.66895 1.84219 3.66895C 0.824775 3.66895 4.5338e-07 2.84763 4.5338e-07 1.83448C 4.5338e-07 0.821322 0.824775 0 1.84219 0C 2.8596 0 3.68437 0.821322 3.68437 1.83448Z" transform="translate(12.0039 46.7495)"/></g><g id="Vector_12"><path stroke="#fff" stroke-miterlimit="10" stroke-width="1.5" d="M 3.68437 1.83448C 3.68437 2.84763 2.8596 3.66895 1.84219 3.66895C 0.824775 3.66895 -2.2669e-07 2.84763 -2.2669e-07 1.83448C -2.2669e-07 0.821325 0.824775 -1.80593e-06 1.84219 -1.80593e-06C 2.8596 -1.80593e-06 3.68437 0.821325 3.68437 1.83448Z" transform="translate(16.2825 51.3062)"/></g><g id="Vector_13"><path stroke="#fff" stroke-miterlimit="10" stroke-width="1.5" d="M 3.68437 1.83448C 3.68437 2.84763 2.8596 3.66895 1.84219 3.66895C 0.824776 3.66895 -4.5338e-07 2.84763 -4.5338e-07 1.83448C -4.5338e-07 0.821322 0.824776 0 1.84219 0C 2.8596 0 3.68437 0.821322 3.68437 1.83448Z" transform="translate(20.3828 25.1501)"/></g><g id="Vector_14"><path stroke="#fff" stroke-miterlimit="10" stroke-width="1.5" d="M 3.68437 1.83448C 3.68437 2.84763 2.8596 3.66895 1.84219 3.66895C 0.824776 3.66895 -9.0676e-07 2.84763 -9.0676e-07 1.83448C -9.0676e-07 0.821323 0.824776 1.12871e-07 1.84219 1.12871e-07C 2.8596 1.12871e-07 3.68437 0.821323 3.68437 1.83448Z" transform="translate(31.2578 6.98267)"/></g><g id="Vector_15"><path stroke="#fff" stroke-miterlimit="10" stroke-width="1.5" d="M 3.68438 1.83448C 3.68438 2.84763 2.8596 3.66895 1.84219 3.66895C 0.824774 3.66895 0 2.84763 0 1.83448C 0 0.821323 0.824774 1.12871e-07 1.84219 1.12871e-07C 2.8596 1.12871e-07 3.68438 0.821323 3.68438 1.83448Z" transform="translate(26.1472 5.79932)"/></g><g id="Vector_16"><path stroke="#fff" stroke-miterlimit="10" stroke-width="1.5" d="M 3.68438 1.83448C 3.68438 2.84763 2.8596 3.66895 1.84219 3.66895C 0.824775 3.66895 4.5338e-07 2.84763 4.5338e-07 1.83448C 4.5338e-07 0.821324 0.824775 -4.51482e-07 1.84219 -4.51482e-07C 2.8596 -4.51482e-07 3.68438 0.821324 3.68438 1.83448Z" transform="translate(21.8091 31.2454)"/></g><g id="Vector_17"><path stroke="#fff" stroke-miterlimit="10" stroke-width="1.5" d="M 3.68437 1.83448C 3.68437 2.84763 2.8596 3.66895 1.84219 3.66895C 0.824776 3.66895 -4.5338e-07 2.84763 -4.5338e-07 1.83448C -4.5338e-07 0.821324 0.824776 2.25741e-07 1.84219 2.25741e-07C 2.8596 2.25741e-07 3.68437 0.821324 3.68437 1.83448Z" transform="translate(34.3479 15.1494)"/></g><g id="Vector_18"><path stroke="#fff" stroke-miterlimit="10" stroke-width="1.5" d="M 3.68438 1.83448C 3.68438 2.84763 2.8596 3.66895 1.84219 3.66895C 0.824777 3.66895 -1.81352e-06 2.84763 -1.81352e-06 1.83448C -1.81352e-06 0.821323 0.824777 4.51482e-07 1.84219 4.51482e-07C 2.8596 4.51482e-07 3.68438 0.821323 3.68438 1.83448Z" transform="translate(41.4194 16.3921)"/></g><g id="Vector_19"><path stroke="#fff" stroke-miterlimit="10" stroke-width="1.5" d="M 3.68438 1.83448C 3.68438 2.84763 2.8596 3.66895 1.84219 3.66895C 0.824777 3.66895 -1.81352e-06 2.84763 -1.81352e-06 1.83448C -1.81352e-06 0.821323 0.824777 0 1.84219 0C 2.8596 0 3.68438 0.821323 3.68438 1.83448Z" transform="translate(41.4194 9.46826)"/></g><g id="Vector_20"><path stroke="#fff" stroke-miterlimit="10" stroke-width="1.5" d="M 3.68437 1.83448C 3.68437 2.84763 2.8596 3.66895 1.84219 3.66895C 0.824776 3.66895 -9.0676e-07 2.84763 -9.0676e-07 1.83448C -9.0676e-07 0.821322 0.824776 0 1.84219 0C 2.8596 0 3.68437 0.821322 3.68437 1.83448Z" transform="translate(31.8521 21.8953)"/></g><g id="Vector_21"><path stroke="#fff" stroke-miterlimit="10" stroke-width="1.5" d="M 3.68437 1.83448C 3.68437 2.84763 2.8596 3.66895 1.84219 3.66895C 0.824776 3.66895 1.81352e-06 2.84763 1.81352e-06 1.83448C 1.81352e-06 0.821324 0.824776 -4.51482e-07 1.84219 -4.51482e-07C 2.8596 -4.51482e-07 3.68437 0.821324 3.68437 1.83448Z" transform="translate(40.5876 31.2454)"/></g><g id="Vector_22"><path stroke="#fff" stroke-miterlimit="10" stroke-width="1.5" d="M 3.68437 1.83448C 3.68437 2.84763 2.8596 3.66895 1.84219 3.66895C 0.824774 3.66895 0 2.84763 0 1.83448C 0 0.821322 0.824774 0 1.84219 0C 2.8596 0 3.68437 0.821322 3.68437 1.83448Z" transform="translate(44.272 21.8953)"/></g><g id="Vector_23"><path stroke="#fff" stroke-miterlimit="10" stroke-width="1.5" d="M 9.0676e-07 20.5935L 9.86462 20.5935L 14.4404 15.6818L 22.8788 15.6818L 25.2558 13.9065L 25.6718 6.98285L 19.1944 2.25741e-07" transform="translate(25.4937 12.4863)"/></g><g id="Vector_24"><path stroke="#fff" stroke-miterlimit="10" stroke-width="1.5" d="M -4.5338e-07 -2.25741e-07L 3.5061 -2.25741e-07L 3.38725 2.48542L 6.95277 8.16638" transform="translate(34.9421 8.81738)"/></g><g id="Vector_25"><path stroke="#fff" stroke-miterlimit="10" stroke-width="1.5" d="M 6.06139 4.51482e-07L 2.97127 4.51482e-07L -9.0676e-07 4.43825L -9.0676e-07 10.0009" transform="translate(28.2866 16.9836)"/></g><g id="Vector_26"><path stroke="#fff" stroke-miterlimit="10" stroke-width="1.5" d="M -4.5338e-07 -1.52588e-06L 8.73553 -1.52588e-06" transform="translate(35.5366 23.73)"/></g><g id="Vector_27"><path stroke="#fff" stroke-miterlimit="10" stroke-width="1.5" d="M 11.588 2.25741e-07L 1.90161 11.4211L 1.90161 19.5283L 0 21.6587" transform="translate(14.8562 8.63989)"/></g><g id="Vector_28"><path stroke="#fff" stroke-miterlimit="10" stroke-width="1.5" d="M 0 8.22556L 4.10035 5.08919L 4.10035 9.02964e-07" transform="translate(8.31958 20.0608)"/></g><g id="Vector_29"><path stroke="#fff" stroke-miterlimit="10" stroke-width="1.5" d="M 2.2669e-07 9.40909L 2.2669e-07 5.74014L 5.64541 0L 10.34 0" transform="translate(7.78491 10.6516)"/></g><g id="Vector_30"><path stroke="#fff" stroke-miterlimit="10" stroke-width="1.5" d="M 9.0676e-07 14.9717L 9.0676e-07 11.8353L 9.62691 4.51482e-07" transform="translate(22.2251 10.1785)"/></g><g id="Vector_31"><path stroke="#fff" stroke-miterlimit="10" stroke-width="1.5" d="M -9.0676e-07 1.52588e-06L 8.85439 1.52588e-06" transform="translate(19.967 38.1099)"/></g><g id="Vector_32"><path stroke="#fff" stroke-miterlimit="10" stroke-width="1.5" d="M 4.5338e-07 3.49142L 5.46714 3.49142L 8.91381 0" transform="translate(32.5059 34.6184)"/></g><g id="Vector_33"><path stroke="#fff" stroke-miterlimit="10" stroke-width="1.5" d="M 2.2669e-07 -4.51482e-07L 2.2669e-07 2.24871L 6.06139 8.69897" transform="translate(7.78491 31.8369)"/></g><g id="Vector_34"><path stroke="#fff" stroke-miterlimit="10" stroke-width="1.5" d="M -7.62939e-07 -1.80593e-06L -7.62939e-07 2.5446" transform="translate(13.8462 44.2048)"/></g><g id="Vector_35"><path stroke="#fff" stroke-miterlimit="10" stroke-width="1.5" d="M 0 0L 0 11.3619" transform="translate(18.1248 39.9443)"/></g><g id="Vector_36"><path stroke="#fff" stroke-miterlimit="10" stroke-width="1.5" d="M 0 9.02964e-07L 0 14.0249" transform="translate(18.1248 54.9751)"/></g><g id="Vector_37"><path stroke="#fff" stroke-miterlimit="10" stroke-width="1.5" d="M -7.62939e-07 -1.80593e-06L -7.62939e-07 18.5815" transform="translate(13.8462 50.4185)"/></g></g></g></svg>