<svg xmlns="http://www.w3.org/2000/svg" xmlns:xlink="http://www.w3.org/1999/xlink" id="Layer_1" x="0" y="0" version="1.1" viewBox="0 0 65 65" xml:space="preserve" style="enable-background:new 0 0 65 65"><style type="text/css">.st0{fill:#fff}.st6{fill:#5bb4da}.st19{fill:#010101}</style><g><rect width="12.8" height="18.3" x="2.4" y="41.5" class="st19"/><rect width="12.2" height="14.2" x="16.5" y="45.6" class="st19"/><polygon points="42.8 59.8 30.1 59.8 30.1 30.1 42.8 32.5" class="st19"/><polygon points="22 44.2 16.5 44.2 16.5 40.3 9.8 40.3 9.8 28.8 22 28.8" class="st19"/><rect width="2.7" height="2.7" x="5.8" y="44.2" class="st0"/><rect width="2.7" height="2.7" x="9.8" y="44.2" class="st0"/><rect width="2.7" height="2.7" x="5.8" y="48.3" class="st0"/><rect width="2.7" height="2.7" x="9.8" y="48.3" class="st0"/><rect width="2.7" height="2.7" x="5.8" y="52.4" class="st0"/><rect width="2.7" height="2.7" x="9.8" y="52.4" class="st0"/><rect width="2.7" height="2.7" x="19.2" y="48.3" class="st0"/><rect width="2.7" height="2.7" x="23.2" y="48.3" class="st0"/><rect width="2.7" height="2.7" x="12.5" y="31.4" class="st0"/><rect width="2.7" height="2.7" x="16.5" y="31.4" class="st0"/><rect width="2.7" height="2.7" x="12.5" y="35.5" class="st0"/><rect width="2.7" height="2.7" x="16.5" y="35.5" class="st0"/><rect width="2.7" height="2.7" x="19.2" y="52.4" class="st0"/><rect width="2.7" height="2.7" x="23.2" y="52.4" class="st0"/><rect width="2" height="2" x="33.4" y="33.5" class="st0"/><rect width="2" height="2" x="37.5" y="33.5" class="st0"/><rect width="2" height="2" x="33.4" y="37.3" class="st0"/><rect width="2" height="2" x="37.5" y="37.3" class="st0"/><rect width="2" height="2" x="33.4" y="41.2" class="st0"/><rect width="2" height="2" x="37.5" y="41.2" class="st0"/><rect width="2" height="2" x="33.4" y="45" class="st0"/><rect width="2" height="2" x="37.5" y="45" class="st0"/><rect width="2" height="2" x="33.4" y="48.8" class="st0"/><rect width="2" height="2" x="37.5" y="48.8" class="st0"/><rect width="2" height="2" x="33.4" y="52.6" class="st0"/><rect width="2" height="2" x="37.5" y="52.6" class="st0"/><rect width="2" height="3.3" x="7.8" y="56.5" class="st0"/><rect width="2.7" height="3.3" x="21.3" y="56.5" class="st0"/><rect width="2.1" height="3.3" x="35.4" y="56.5" class="st0"/><path d="M63.4,22.2c0-3.3-2.3-6-5.4-6.5c0,0,0,0,0,0c0-4.1-3.3-7.4-7.4-7.4c-2.6,0-4.8,1.3-6.1,3.3 c-1-0.7-2.3-1.2-3.7-1.2c-3.5,0-6.3,2.8-6.3,6.3c0,0.5,0.1,1,0.2,1.5c-1.9,0.9-3.2,2.8-3.2,5.1c0,3,2.3,5.4,5.2,5.6v0h20.8v0 C60.8,28.5,63.4,25.6,63.4,22.2z" class="st6"/></g></svg>